<?xml version="1.0" encoding="UTF-8"?>
<svg version="1.1" xmlns="http://www.w3.org/2000/svg" width="1326" height="140">
    <path d="M0 0 C1.04885376 -0.00137466 2.09770752 -0.00274933 3.17834473 -0.00416565 C4.3234552 -0.00057037 5.46856567 0.0030249 6.64837646 0.00672913 C7.85840332 0.0065831 9.06843018 0.00643707 10.31512451 0.00628662 C13.62885602 0.0068637 16.94252515 0.01187725 20.25624561 0.01886058 C23.72091806 0.02511401 27.18559134 0.02569949 30.65026855 0.02688599 C37.20918049 0.02999343 43.76807576 0.03819892 50.32698035 0.04823548 C57.79488518 0.05941482 65.26279081 0.06491166 72.73070192 0.06993091 C88.09096672 0.08038201 103.45120854 0.09872021 118.8114624 0.12025452 C118.8114624 8.70025452 118.8114624 17.28025452 118.8114624 26.12025452 C94.7214624 26.12025452 70.6314624 26.12025452 45.8114624 26.12025452 C45.4814624 26.78025452 45.1514624 27.44025452 44.8114624 28.12025452 C44.8114624 27.46025452 44.8114624 26.80025452 44.8114624 26.12025452 C38.69102639 26.13973419 32.57201627 26.19163418 26.4520874 26.27284241 C24.37273946 26.29595705 22.29327553 26.3104027 20.21380615 26.31581116 C17.21437846 26.32514846 14.21675879 26.36624388 11.2177124 26.41322327 C10.2965564 26.40929062 9.37540039 26.40535797 8.42633057 26.40130615 C2.09367498 26.54261221 -2.3228662 27.9625385 -7.1885376 32.12025452 C-10.20161025 36.45154646 -10.74778225 39.90063778 -10.1885376 45.12025452 C-8.45465218 49.77436801 -6.40262964 52.47419672 -2.1885376 55.12025452 C2.4818741 56.16546929 7.08193913 56.26556017 11.84539795 56.26210022 C13.01989754 56.26731186 13.01989754 56.26731186 14.21812439 56.27262878 C15.91063931 56.27995233 17.60316361 56.28531573 19.29569054 56.28891945 C21.98346449 56.29613043 24.67106066 56.31183212 27.35877991 56.33026123 C34.99817438 56.38250703 42.63746934 56.43065697 50.27703857 56.44618225 C54.959076 56.456318 59.6406613 56.48578124 64.3225193 56.52750206 C66.09689716 56.53973562 67.87133907 56.54494744 69.64575768 56.54270363 C84.65316856 56.52839783 95.63163066 58.50559898 106.9052124 69.08509827 C115.51045414 77.96326745 119.25506002 89.01066356 119.08880615 101.27650452 C118.17982517 110.59676023 114.67981799 118.88782595 108.8114624 126.12025452 C108.31001709 126.74544983 107.80857178 127.37064514 107.29193115 128.01478577 C101.52442591 134.45586826 93.32142811 138.72421978 84.8114624 140.12025452 C83.05612718 140.20541825 81.2980332 140.24230413 79.54063416 140.24050903 C78.49881989 140.2418837 77.45700562 140.24325836 76.38362122 140.24467468 C74.68537453 140.23928177 74.68537453 140.23928177 72.95281982 140.23377991 C71.75240051 140.23392593 70.5519812 140.23407196 69.31518555 140.23422241 C66.03251134 140.23364599 62.74988002 140.22863791 59.46721435 140.22164845 C56.03324429 140.21538829 52.59927335 140.21480901 49.16529846 140.21362305 C42.66662688 140.21051758 36.16797217 140.20231477 29.66930801 140.19227356 C22.26909336 140.18108805 14.8688779 140.17559583 7.4686569 140.17057812 C-7.75041936 140.1601315 -22.96947239 140.14179578 -38.1885376 140.12025452 C-38.1885376 131.54025452 -38.1885376 122.96025452 -38.1885376 114.12025452 C-32.92710815 114.09838074 -32.92710815 114.09838074 -27.55938721 114.07606506 C-15.96834051 114.02572112 -4.37741695 113.95927594 7.2134943 113.8845396 C14.24084534 113.83962124 21.26814615 113.80019755 28.29559326 113.77381897 C35.07786207 113.74834514 41.85989773 113.70741378 48.6420269 113.65706825 C51.22913262 113.64038741 53.81627706 113.62888074 56.40342903 113.62264061 C60.02804129 113.61301318 63.65207936 113.58496837 67.27655029 113.55262756 C68.87985451 113.5547802 68.87985451 113.5547802 70.51554871 113.55697632 C76.37978607 113.48301168 80.65493115 112.99686774 85.8114624 110.12025452 C89.79280101 105.8245997 91.12950919 103.12643724 91.0223999 97.21400452 C90.69194408 93.93392453 89.66009951 91.83158894 87.8114624 89.12025452 C81.86312856 84.43752362 77.35734775 83.97296571 69.9887085 83.96253967 C69.20439453 83.95745895 68.42008057 83.95237823 67.61199951 83.94714355 C65.91072067 83.93645616 64.20942792 83.92782961 62.50812912 83.92102432 C59.80819208 83.90920005 57.10841246 83.8897359 54.40853882 83.86790466 C46.73251654 83.8064235 39.05650961 83.75236759 31.38031006 83.71888733 C26.68119151 83.69784284 21.98235931 83.66245844 17.2834053 83.61812973 C15.49982722 83.60404308 13.71619846 83.59526401 11.9325676 83.59207535 C-2.59621134 83.5633634 -14.40216707 82.54767918 -25.38775635 72.01087952 C-29.65248502 67.438712 -32.83501598 62.91066484 -35.1885376 57.12025452 C-35.5804126 56.21275452 -35.9722876 55.30525452 -36.3760376 54.37025452 C-39.33275944 42.54336713 -38.54850955 30.51834664 -32.5010376 19.74525452 C-25.00968924 8.57233887 -13.92756794 -0.01409673 0 0 Z " fill="#DF3A3A" transform="translate(632.1885375976563,-0.1202545166015625)"/>
    <path d="M0 0 C15.97762608 -0.09048733 31.95503158 -0.16409029 47.93284321 -0.20724869 C55.35253929 -0.22782544 62.77206421 -0.25585174 70.19165039 -0.30175781 C76.66274821 -0.34177618 83.13372198 -0.36746829 89.60494012 -0.37635398 C93.02767472 -0.38154356 96.45005464 -0.39363693 99.87267494 -0.42292023 C103.70479706 -0.45209594 107.5361923 -0.4559499 111.3684082 -0.45410156 C112.48835175 -0.46848267 113.60829529 -0.48286377 114.76217651 -0.49768066 C126.94600367 -0.43438715 136.32316438 3.44161947 145 12 C153.55751739 21.73786462 156.79522051 32.45887196 156.375 45.328125 C155.21956136 56.64179497 150.2755714 66.04625278 142.01953125 73.87890625 C134.54274083 79.83347586 126.28784711 83.16617225 116.75 83.0625 C115.67234375 83.05347656 114.5946875 83.04445313 113.484375 83.03515625 C112.25460937 83.01775391 112.25460937 83.01775391 111 83 C118.29401792 92.79218051 125.61054548 102.56293886 133.125 112.1875 C133.68993164 112.91179199 134.25486328 113.63608398 134.83691406 114.38232422 C135.97516715 115.84138136 137.11351323 117.30036596 138.25195312 118.75927734 C138.82880859 119.49871582 139.40566406 120.2381543 140 121 C140.61810547 121.79229004 141.23621094 122.58458008 141.87304688 123.40087891 C143.71214827 125.76333655 145.54437511 128.13097084 147.375 130.5 C147.94105957 131.22469482 148.50711914 131.94938965 149.09033203 132.69604492 C149.60450684 133.3635376 150.11868164 134.03103027 150.6484375 134.71875 C151.10395996 135.30591797 151.55948242 135.89308594 152.02880859 136.49804688 C153 138 153 138 153 140 C148.42872198 140.19886761 143.8599965 140.34341878 139.28540039 140.43945312 C137.73221961 140.47950603 136.17933715 140.53397031 134.62719727 140.60351562 C121.77864142 141.16447986 121.77864142 141.16447986 117.53100586 138.38354492 C115.73376487 136.3500469 114.36239245 134.34224519 113 132 C112.24074219 131.02675781 111.48148437 130.05351562 110.69921875 129.05078125 C110.03535156 128.14714844 109.37148438 127.24351563 108.6875 126.3125 C105.1795013 121.57995538 101.62448161 116.88961984 98.02563477 112.22583008 C93.81995291 106.77294043 89.64064651 101.30002775 85.46582031 95.82348633 C84.94342773 95.13923584 84.42103516 94.45498535 83.8828125 93.75 C83.38942383 93.10289063 82.89603516 92.45578125 82.38769531 91.7890625 C81.16241267 90.20938777 79.89290769 88.66422961 78.6171875 87.125 C77 85 77 85 77 83 C60.5 83 44 83 27 83 C27 101.81 27 120.62 27 140 C13.36633663 140 13.36633663 140 7.27734375 134.421875 C-0.41675312 126.02831478 -0.41811787 118.07468006 -0.29296875 107.09765625 C-0.287366 105.65034934 -0.28309911 104.2030367 -0.28010559 102.75572205 C-0.26871009 98.96625768 -0.23928949 95.17714416 -0.20599365 91.38781738 C-0.17517775 87.51315048 -0.16157577 83.63842629 -0.14648438 79.76367188 C-0.11441388 72.17562217 -0.06328279 64.58786045 0 57 C0.87934 56.99503478 0.87934 56.99503478 1.77644444 56.98996925 C16.05762182 56.90865766 30.33869947 56.8165386 44.61972904 56.71247292 C51.52600464 56.66240609 58.43226873 56.61596264 65.33862305 56.578125 C72.00414133 56.54159655 78.66951701 56.49487042 85.33492851 56.44193649 C87.87738247 56.42340992 90.41986366 56.40829557 92.96235847 56.39665604 C96.52459853 56.37976423 100.08654848 56.35072117 103.64868164 56.31884766 C104.69884964 56.31668747 105.74901764 56.31452728 106.83100891 56.31230164 C112.28870136 56.24995645 116.84207374 55.8057195 122 54 C122.99 53.67 123.98 53.34 125 53 C128.14233123 48.37892466 129.26540716 42.7398914 128.4375 37.3125 C126.48347475 32.80974616 124.11594675 30.00664355 119.64722157 27.88068581 C116.91555326 26.971906 114.82555075 26.74001429 111.95695496 26.7215271 C110.96562561 26.71036362 109.97429626 26.69920013 108.95292664 26.68769836 C107.87686661 26.68553818 106.80080658 26.68337799 105.69213867 26.68115234 C103.97929184 26.66608391 103.97929184 26.66608391 102.23184204 26.65071106 C98.46055602 26.61984051 94.68934113 26.60283287 90.91796875 26.5859375 C88.30193976 26.567229 85.68591683 26.54765583 83.06990051 26.5272522 C76.89001522 26.48050988 70.71011262 26.44374384 64.53014117 26.41057932 C57.49261766 26.37232573 50.45518613 26.32292409 43.41774023 26.27259517 C28.94522601 26.16934298 14.47265335 26.08153234 0 26 C0 17.42 0 8.84 0 0 Z " fill="#DF3A3A" transform="translate(198,0)"/>
    <path d="M0 0 C0.76159424 -0.0065712 1.52318848 -0.0131424 2.30786133 -0.01991272 C4.82568472 -0.03960201 7.3434484 -0.05130242 9.86132812 -0.0612793 C10.72528702 -0.06535482 11.58924591 -0.06943035 12.47938538 -0.07362938 C17.05786905 -0.09447774 21.63632291 -0.10878129 26.21484375 -0.11816406 C30.91749002 -0.12918842 35.61965789 -0.16354553 40.32213593 -0.20333576 C43.95984707 -0.22963644 47.59744692 -0.23786805 51.23524475 -0.24144554 C52.96699735 -0.24628174 54.69874599 -0.25780979 56.43040466 -0.27648354 C71.21993521 -0.42597737 82.57738935 1.54371215 94.39257812 11.17700195 C95.029375 11.6771582 95.66617187 12.17731445 96.32226562 12.69262695 C105.02053893 20.34710746 109.82994061 32.781681 110.59303284 44.1680603 C110.68885008 47.61511104 110.72213754 51.05674518 110.72851562 54.50512695 C110.73850082 56.4041275 110.73850082 56.4041275 110.74868774 58.3414917 C110.75877729 61.0109268 110.76437566 63.67995408 110.76318359 66.34936523 C110.76298096 69.73248147 110.7902546 73.1147525 110.82472801 76.49766922 C110.85261412 79.77095444 110.8511532 83.04423936 110.85351562 86.31762695 C110.86788666 87.51284973 110.88225769 88.70807251 110.89706421 89.93951416 C110.81864105 104.61144825 106.10719982 117.18196749 96.08007812 127.98950195 C83.72907691 139.46025363 69.80221119 140.64877036 53.71289062 140.6105957 C52.01097406 140.61516838 50.30905934 140.62047714 48.60714722 140.6264801 C45.05524148 140.6353685 41.50356109 140.63303757 37.95166016 140.62304688 C33.43419937 140.61156886 28.9175217 140.63177248 24.40016365 140.66096401 C20.88934513 140.67944588 17.37871011 140.67900979 13.86785507 140.67332649 C12.20393654 140.67317471 10.54000441 140.679099 8.87613297 140.69161797 C-7.51920581 140.797619 -20.5754953 137.86880189 -32.85742188 126.36450195 C-36.68018969 122.38213548 -39.25294264 118.1455798 -41.60742188 113.17700195 C-41.91550781 112.53375977 -42.22359375 111.89051758 -42.54101562 111.2277832 C-45.01095814 105.77972819 -45.72985097 100.95878979 -45.78442383 95.01660156 C-45.79725906 93.79440414 -45.8100943 92.57220673 -45.82331848 91.31297302 C-45.83070541 89.99837601 -45.83809235 88.68377899 -45.84570312 87.3293457 C-45.84977865 86.65385744 -45.85385418 85.97836918 -45.85805321 85.28241158 C-45.87886768 81.70243773 -45.89318565 78.1225016 -45.90258789 74.54248047 C-45.91360435 70.8767292 -45.94796114 67.21159297 -45.98775959 63.5460577 C-46.01413193 60.7001293 -46.02229806 57.85434247 -46.02586937 55.00830269 C-46.03300441 53.00999868 -46.05935637 51.01179228 -46.08625793 49.01365662 C-46.05425252 35.40155058 -42.29450011 24.76773941 -33.29492188 14.55200195 C-23.13873791 5.57676961 -13.78855817 0.05186736 0 0 Z M-14.60742188 33.17700195 C-18.43183094 39.44334789 -19.73434429 44.62351756 -19.72094727 51.96508789 C-19.72109329 52.63866837 -19.72123932 53.31224884 -19.72138977 54.00624084 C-19.72069511 56.22465272 -19.71292368 58.44297981 -19.70507812 60.66137695 C-19.70321236 62.2026566 -19.7017892 63.74393684 -19.70079041 65.28521729 C-19.69697773 69.33597459 -19.68715812 73.38669587 -19.67608643 77.43743896 C-19.66584544 81.57327792 -19.66128703 85.70912271 -19.65625 89.8449707 C-19.64553472 97.95566429 -19.62847331 106.06632864 -19.60742188 114.17700195 C-8.66300509 114.24663083 2.28135865 114.29987865 13.22595215 114.33243847 C18.30842942 114.34806859 23.39075471 114.36925837 28.47314453 114.40332031 C33.38147467 114.43600841 38.28965897 114.45387492 43.1980896 114.46163368 C45.06711115 114.46716024 46.93612506 114.47795221 48.80508423 114.49419212 C51.43077606 114.51609215 54.05587159 114.51896365 56.68164062 114.51757812 C57.83071648 114.53375687 57.83071648 114.53375687 59.00300598 114.55026245 C65.71355173 114.51215418 72.04331478 112.92343162 77.20507812 108.36450195 C77.74777344 107.90430664 78.29046875 107.44411133 78.84960938 106.9699707 C84.24066822 100.70542384 83.84555623 94.26616579 83.82617188 86.40356445 C83.83141373 85.16585297 83.83665558 83.92814148 83.84205627 82.65292358 C83.85010832 79.37122998 83.84302872 76.0899562 83.83172607 72.80828857 C83.82899911 69.48836192 83.86418953 66.16868033 83.890625 62.84887695 C83.89223744 60.30460655 83.89165866 57.76033362 83.88867188 55.21606445 C83.89990585 54.02937164 83.91113983 52.84267883 83.92271423 51.62002563 C83.85701916 43.7681415 82.88755392 38.31032949 77.68164062 32.15356445 C77.1325 31.70754883 76.58335938 31.2615332 76.01757812 30.80200195 C75.47359375 30.34051758 74.92960937 29.8790332 74.36914062 29.40356445 C69.66525514 26.48455251 65.04176648 25.92377786 59.59619141 25.90234375 C58.94492279 25.89723282 58.29365417 25.89212189 57.62265015 25.88685608 C55.48596815 25.87304282 53.34961176 25.87391069 51.21289062 25.8762207 C49.71605308 25.87232889 48.21921663 25.86799323 46.72238159 25.86323547 C43.59043798 25.85579079 40.45860712 25.85605153 37.32666016 25.86132812 C33.3299442 25.86711693 29.33369256 25.85019783 25.3370533 25.82698345 C22.24678894 25.81218957 19.15663491 25.81138212 16.0663414 25.81449318 C14.59366818 25.81398269 13.12098833 25.80879647 11.64834976 25.79868126 C-2.72613467 25.70323792 -2.72613467 25.70323792 -14.60742188 33.17700195 Z " fill="#DF3A3A" transform="translate(1016.607421875,-0.177001953125)"/>
    <path d="M0 0 C51.81 0 103.62 0 157 0 C157 8.58 157 17.16 157 26 C114.1 26 71.2 26 27 26 C27.0825 37.715 27.165 49.43 27.25 61.5 C27.26579102 65.18607422 27.28158203 68.87214844 27.29785156 72.66992188 C27.33111044 76.00155495 27.33111044 76.00155495 27.36956787 79.33312988 C27.38409089 80.80605827 27.39094991 82.27907533 27.39154053 83.7520752 C27.31492478 95.45907285 27.31492478 95.45907285 32 106 C34.11272352 108.09981917 34.11272352 108.09981917 36.5 109.4375 C37.2528125 109.91058594 38.005625 110.38367188 38.78125 110.87109375 C42.42634386 112.72572778 45.67109368 113.12634266 49.73297119 113.15821838 C50.6808551 113.1680072 51.62873901 113.17779602 52.60534668 113.18788147 C53.63824829 113.19363693 54.6711499 113.1993924 55.73535156 113.20532227 C56.82833557 113.21522186 57.92131958 113.22512146 59.04742432 113.23532104 C62.66180247 113.26692024 66.27619378 113.29168736 69.890625 113.31640625 C72.39597923 113.33697713 74.90133001 113.35797364 77.40667725 113.37937927 C83.32806977 113.42894266 89.24948527 113.47421162 95.17092681 113.51740164 C102.57492481 113.57166821 109.97886543 113.63259956 117.3828125 113.69335938 C130.58850433 113.80092394 143.7942347 113.90186866 157 114 C157 122.58 157 131.16 157 140 C141.83925635 140.09056805 126.6786361 140.16413699 111.5176897 140.20724869 C104.47694471 140.22780528 97.43638071 140.25579222 90.39575195 140.30175781 C83.59411099 140.34614168 76.79265771 140.36917517 69.99088097 140.37950897 C67.40309386 140.38686815 64.81531637 140.40123848 62.22760963 140.42292023 C42.59983276 140.58075337 27.89921806 140.16630795 12.9375 126.0546875 C-0.53459319 111.7115538 -0.43466946 93.87451371 -0.29296875 75.390625 C-0.28854938 73.45687113 -0.2854941 71.52311366 -0.28381348 69.58935547 C-0.26818353 62.4761817 -0.22629989 55.36308512 -0.1875 48.25 C-0.125625 32.3275 -0.06375 16.405 0 0 Z " fill="#DF3A3A" transform="translate(396,0)"/>
    <path d="M0 0 C15.88177625 -0.06782179 31.76343703 -0.12304263 47.64531612 -0.15543652 C55.02018877 -0.17087993 62.39496478 -0.19192087 69.76977539 -0.22631836 C76.20056764 -0.25629838 82.63128987 -0.27559335 89.06215006 -0.28226548 C92.46463191 -0.28616325 95.86691354 -0.29527018 99.26933098 -0.31719017 C103.07542588 -0.33901997 106.88110826 -0.34196451 110.68725586 -0.34057617 C111.80503922 -0.351362 112.92282257 -0.36214783 114.07447815 -0.3732605 C126.89478108 -0.32277813 135.86324353 4.09324642 145.25 12.6875 C152.57741307 20.32143832 155.958775 30.89235094 156.3125 41.3125 C156.02974631 53.35448059 151.45202168 63.40053966 143.375 72.25 C136.89080415 78.42125203 127.9164732 83.13201616 118.83648682 83.12025452 C117.60397942 83.12231651 117.60397942 83.12231651 116.34657288 83.12442017 C115.45393234 83.12082489 114.56129181 83.11722961 113.64160156 83.11352539 C112.22158089 83.11374443 112.22158089 83.11374443 110.77287292 83.1139679 C107.6454336 83.11327153 104.51805392 83.10549198 101.390625 83.09765625 C99.22157829 83.09579109 97.05253117 83.09436765 94.88348389 83.09336853 C89.17558631 83.08955106 83.46771418 83.07972731 77.75982666 83.06866455 C70.91074652 83.05663504 64.06165787 83.05204452 57.21257019 83.04621124 C46.80836242 83.03651518 36.40421051 83.01735321 26 83 C26 101.81 26 120.62 26 140 C17.52818461 140 12.98455753 139.75709263 7.015625 134.12890625 C1.84205286 128.47432018 -0.2568197 124.15835082 -0.22705078 116.3737793 C-0.22734283 115.72931351 -0.22763489 115.08484772 -0.22793579 114.42085266 C-0.22655005 112.30516779 -0.21102507 110.18984158 -0.1953125 108.07421875 C-0.19157967 106.60163058 -0.18873397 105.12903991 -0.18673706 103.65644836 C-0.17912183 99.79142328 -0.15949163 95.92654987 -0.1373291 92.06158447 C-0.11682508 88.11334281 -0.10772562 84.1650765 -0.09765625 80.21679688 C-0.0762436 72.47779563 -0.04213333 64.73891912 0 57 C0.87934 56.99503478 0.87934 56.99503478 1.77644444 56.98996925 C16.05762182 56.90865766 30.33869947 56.8165386 44.61972904 56.71247292 C51.52600464 56.66240609 58.43226873 56.61596264 65.33862305 56.578125 C72.00414133 56.54159655 78.66951701 56.49487042 85.33492851 56.44193649 C87.87738247 56.42340992 90.41986366 56.40829557 92.96235847 56.39665604 C96.52459853 56.37976423 100.08654848 56.35072117 103.64868164 56.31884766 C104.69884964 56.31668747 105.74901764 56.31452728 106.83100891 56.31230164 C115.83524433 56.34890898 115.83524433 56.34890898 123.7421875 52.5625 C127.7333986 47.05738124 128.7014574 43.75737296 128 37 C126.63002843 34.12853006 126.63002843 34.12853006 125 32 C125 31.34 125 30.68 125 30 C120.5905242 28.21237468 116.97928892 26.87765812 112.19746399 26.84178162 C111.20888397 26.8319928 110.22030396 26.82220398 109.20176697 26.81211853 C108.11851639 26.80636307 107.03526581 26.8006076 105.91918945 26.79467773 C104.77758362 26.78477814 103.63597778 26.77487854 102.45977783 26.76467896 C98.67763357 26.733033 94.89547673 26.70829419 91.11328125 26.68359375 C88.49439666 26.66302691 85.87551541 26.64203051 83.25663757 26.62062073 C77.06251013 26.57070873 70.86835698 26.52576437 64.67417926 26.48259836 C57.62221819 26.43321322 50.57030357 26.37829983 43.51838744 26.32291877 C29.01230105 26.20912165 14.50616713 26.10300747 0 26 C0 17.42 0 8.84 0 0 Z " fill="#DF3A3A" transform="translate(0,0)"/>
    <path d="M0 0 C1.32091644 0.00033989 1.32091644 0.00033989 2.66851807 0.00068665 C4.08121979 0.02391243 4.08121979 0.02391243 5.52246094 0.04760742 C6.49342712 0.05185226 7.46439331 0.05609711 8.46478271 0.06047058 C11.56241725 0.07724764 14.65939843 0.11489845 17.75683594 0.15307617 C19.85838903 0.16812425 21.95995234 0.18181244 24.06152344 0.1940918 C29.21021223 0.22714807 34.35841335 0.2789241 39.50683594 0.34057617 C36.66916199 3.23591769 33.85164137 5.9896244 30.64355469 8.46948242 C29.5727063 9.30044434 29.5727063 9.30044434 28.48022461 10.14819336 C27.72588135 10.72730469 26.97153809 11.30641602 26.19433594 11.90307617 C25.40325439 12.51441406 24.61217285 13.12575195 23.79711914 13.75561523 C17.96468832 18.25114419 12.08687746 22.68465622 6.18603516 27.08984375 C1.14467819 30.85366508 -3.84832226 34.67653573 -8.82910156 38.52026367 C-13.47538011 42.10182496 -18.14042722 45.6587659 -22.80566406 49.21557617 C-23.7008374 49.89861816 -24.59601074 50.58166016 -25.51831055 51.28540039 C-29.78360061 54.5350349 -34.05811981 57.77021499 -38.36425781 60.96557617 C-39.10699951 61.51745605 -39.84974121 62.06933594 -40.61499023 62.63793945 C-42.0017893 63.66598759 -43.39115836 64.69058073 -44.78344727 65.71118164 C-48.14611799 68.06759196 -48.14611799 68.06759196 -50.49316406 71.34057617 C-49.95175781 71.5803418 -49.41035156 71.82010742 -48.85253906 72.06713867 C-45.88618054 73.66818648 -43.39646342 75.63468911 -40.74316406 77.71557617 C-39.57592767 78.62537071 -38.40792498 79.53418275 -37.23925781 80.44213867 C-36.32055908 81.15611816 -36.32055908 81.15611816 -35.38330078 81.88452148 C-32.21795542 84.32292496 -29.00979603 86.70352559 -25.80566406 89.09057617 C-17.71208422 95.13680687 -9.73994555 101.33364618 -1.77978516 107.55395508 C2.00029244 110.50746862 5.78423175 113.45600849 9.56933594 116.40307617 C10.30410156 116.97574219 11.03886719 117.5484082 11.79589844 118.13842773 C15.60665648 121.10365291 19.43047667 124.04993418 23.27636719 126.96948242 C24.43543579 127.85011353 24.43543579 127.85011353 25.61791992 128.74853516 C27.08537512 129.86150964 28.55482097 130.97186622 30.02661133 132.07910156 C30.68781982 132.58046631 31.34902832 133.08183105 32.03027344 133.59838867 C32.89531494 134.25025146 32.89531494 134.25025146 33.77783203 134.9152832 C35.82300381 136.60120708 37.65764884 138.44377921 39.50683594 140.34057617 C33.53396202 140.64106905 27.56563423 140.85667864 21.58691406 140.99975586 C19.56139378 141.05948109 17.53637656 141.14090332 15.51269531 141.24584961 C1.80887884 141.9378245 -6.77138503 140.70760505 -17.18115234 131.41918945 C-17.75166321 130.88610168 -18.32217407 130.35301392 -18.90997314 129.80377197 C-20.96342579 127.90595709 -23.15665414 126.23571662 -25.39550781 124.56323242 C-26.7415627 123.51112873 -28.08663733 122.45776953 -29.43066406 121.40307617 C-35.36519177 116.76727239 -41.31968257 112.15976933 -47.30566406 107.59057617 C-48.35403442 106.79031006 -48.35403442 106.79031006 -49.42358398 105.97387695 C-50.78934614 104.93150437 -52.15514915 103.88918532 -53.52099609 102.84692383 C-56.59907843 100.49587554 -59.67211635 98.1383031 -62.74316406 95.77807617 C-63.73832031 95.01366211 -64.73347656 94.24924805 -65.75878906 93.46166992 C-66.66113281 92.76170898 -67.56347656 92.06174805 -68.49316406 91.34057617 C-69.38003906 90.6728418 -70.26691406 90.00510742 -71.18066406 89.31713867 C-73.41055654 87.41118328 -74.75644768 85.78328982 -76.24316406 83.27807617 C-76.85417969 82.27067383 -76.85417969 82.27067383 -77.47753906 81.24291992 C-80.65255693 75.29586722 -80.57921272 67.93367174 -78.65722656 61.57495117 C-74.26350385 51.96183973 -65.41962407 46.39942089 -57.11816406 40.27807617 C-50.51744273 35.37147489 -43.96726413 30.41311168 -37.49316406 25.34057617 C-28.59283838 18.37397596 -19.55905953 11.59100685 -10.49755859 4.8359375 C-9.18260383 3.85492679 -7.89726354 2.83264243 -6.64871216 1.7684021 C-4.16615006 0.12396348 -2.94322321 -0.02537261 0 0 Z " fill="#DF3A3A" transform="translate(1286.4931640625,-0.340576171875)"/>
    <path d="M0 0 C2.0512992 0.05530901 4.10274377 0.10547564 6.15429688 0.15039062 C11.12735905 0.27028494 16.09327885 0.45929054 21.0625 0.6875 C18.08870227 3.73785803 15.12117815 6.55041824 11.71875 9.11328125 C10.89568359 9.73654297 10.07261719 10.35980469 9.22460938 11.00195312 C7.90686523 11.99098633 7.90686523 11.99098633 6.5625 13 C4.66659027 14.43349272 2.77075911 15.86708935 0.875 17.30078125 C-0.57519531 18.39447021 -0.57519531 18.39447021 -2.0546875 19.51025391 C-6.52689916 22.88789479 -10.98174692 26.28819635 -15.4375 29.6875 C-17.17569907 31.01182661 -18.91398071 32.33604488 -20.65234375 33.66015625 C-24.27047584 36.41673201 -27.88751728 39.17473162 -31.50390625 41.93359375 C-33.33588274 43.33080097 -35.16791317 44.72793746 -37 46.125 C-37.88147705 46.79724609 -38.7629541 47.46949219 -39.67114258 48.16210938 C-44.30579184 51.69343838 -48.95364667 55.20489259 -53.625 58.6875 C-58.82475601 62.57048327 -63.8997614 66.59712375 -68.9375 70.6875 C-68.20789063 71.24695313 -67.47828125 71.80640625 -66.7265625 72.3828125 C-60.93407652 76.83086964 -55.15468532 81.2943134 -49.39794922 85.78857422 C-42.95570366 90.81643203 -36.48991611 95.80389469 -29.9375 100.6875 C-21.8704216 106.70000382 -13.93994109 112.88206187 -6.00927734 119.07275391 C0.1285544 123.85658836 6.27768277 128.62849858 12.52734375 133.265625 C13.0888916 133.68287842 13.65043945 134.10013184 14.22900391 134.5300293 C15.78173644 135.68087541 17.33802335 136.82692145 18.89453125 137.97265625 C19.60996094 138.53855469 20.32539062 139.10445312 21.0625 139.6875 C21.0625 140.0175 21.0625 140.3475 21.0625 140.6875 C14.85546098 140.91157392 8.65082166 141.07402809 2.44067383 141.18188477 C0.33283436 141.2268834 -1.77472834 141.28810676 -3.8815918 141.36645508 C-23.64063798 142.08232864 -23.64063798 142.08232864 -30.4140625 136.5078125 C-31.95199798 134.92985005 -33.46353293 133.32537427 -34.9375 131.6875 C-36.22297596 130.64756961 -37.534921 129.63890498 -38.87890625 128.67578125 C-39.47243896 128.23564697 -40.06597168 127.7955127 -40.67749023 127.34204102 C-41.27891846 126.89916748 -41.88034668 126.45629395 -42.5 126 C-49.11396051 121.08401367 -55.63714588 116.061655 -62.13037109 110.98754883 C-68.11302131 106.31606704 -74.13648308 101.70042879 -80.19311523 97.12524414 C-94.83179048 86.00462857 -94.83179048 86.00462857 -97.9375 76.6875 C-98.57827905 69.00865602 -98.90330283 61.92725224 -93.9375 55.6875 C-87.54823181 48.8584846 -79.79040303 43.47653591 -72.296875 37.9375 C-67.70221064 34.53219018 -63.19225956 31.0229469 -58.6875 27.5 C-46.41980559 17.92319178 -46.41980559 17.92319178 -41.0637207 14.06494141 C-38.85666362 12.3865094 -36.90524932 10.7613829 -34.89501953 8.88427734 C-23.9936218 -0.8147551 -14.06514815 -0.66574502 0 0 Z " fill="#DF3A3A" transform="translate(928.9375,-0.6875)"/>
    <path d="M0 0 C8.91 0 17.82 0 27 0 C27 46.2 27 92.4 27 140 C18.09 140 9.18 140 0 140 C0 93.8 0 47.6 0 0 Z " fill="#DF3A3A" transform="translate(1169,0)"/>
    <path d="M0 0 C8.58 0 17.16 0 26 0 C26 46.2 26 92.4 26 140 C17.42 140 8.84 140 0 140 C0 93.8 0 47.6 0 0 Z " fill="#DE3A3A" transform="translate(793,0)"/>
    <path d="M0 0 C33 0 66 0 100 0 C100 8.58 100 17.16 100 26 C67 26 34 26 0 26 C0 17.42 0 8.84 0 0 Z " fill="#DF3A3A" transform="translate(453,57)"/>
    <path d="" fill="#FF0000" transform="translate(0,0)"/>
    <path d="" fill="#FF0000" transform="translate(0,0)"/>
    <path d="" fill="#FF0000" transform="translate(0,0)"/>
    <path d="" fill="#FF0000" transform="translate(0,0)"/>
    <path d="" fill="#FF0000" transform="translate(0,0)"/>
    <path d="" fill="#FF0000" transform="translate(0,0)"/>
    <path d="" fill="#FF0000" transform="translate(0,0)"/>
    <path d="" fill="#FF0000" transform="translate(0,0)"/>
    <path d="" fill="#FF0000" transform="translate(0,0)"/>
    <path d="" fill="#FF0000" transform="translate(0,0)"/>
    <path d="" fill="#FF0000" transform="translate(0,0)"/>
    <path d="" fill="#FF0000" transform="translate(0,0)"/>
    <path d="" fill="#FF0000" transform="translate(0,0)"/>
    <path d="" fill="#FF0000" transform="translate(0,0)"/>
    <path d="" fill="#FF0000" transform="translate(0,0)"/>
    <path d="" fill="#FF0000" transform="translate(0,0)"/>
    <path d="" fill="#FF0000" transform="translate(0,0)"/>
</svg>
